<svg width="242" height="153" viewBox="0 0 242 153" fill="none" xmlns="http://www.w3.org/2000/svg">
<path d="M167.171 3.1493C167.117 2.94289 167.018 2.79975 166.904 2.68358C166.717 2.2648 166.274 1.95 165.818 2.03738C165.837 1.45186 165.381 0.860636 164.734 1.02919C158.085 2.75878 151.258 4.54231 144.742 6.8206C140.01 8.475 135.294 10.3003 130.608 12.1113C128.59 12.8908 125.748 13.5678 124.028 15.0949C123.683 15.4017 123.663 15.8617 123.814 16.2564C123.481 16.4355 123.293 16.9508 123.611 17.3768C125.802 20.3138 129.05 25.8057 132.911 26.6243C132.464 33.1097 132.018 40.1696 134.302 46.2605C134.571 46.9786 135.268 47.2506 135.828 46.7084C136.039 46.503 136.227 46.2766 136.428 46.0619C137.962 46.2172 139.827 44.6103 141.016 43.7865C142.674 42.6369 144.264 41.3653 145.826 40.0625C146.535 39.471 147.574 38.8132 148.244 38.0106C150.003 39.288 151.858 40.3517 153.905 40.8594C157.346 41.713 157.812 40.2534 159.282 37.0914C161.95 31.3497 163.713 24.8623 165.579 18.7481C167.084 13.8163 168.512 8.30826 167.171 3.1493ZM135.087 35.8895C135.003 37.1453 134.769 38.8946 134.783 40.5723C134.097 36.0409 134.345 31.3082 134.163 26.7169C134.748 26.6863 135.331 26.5582 135.91 26.365C135.615 29.5377 135.299 32.7101 135.087 35.8895ZM125.028 16.9523C132.275 14.1614 139.471 11.1915 146.79 8.62825C151.376 7.02183 156.858 6.58463 161.575 4.76791C160.124 6.0336 158.734 7.47017 157.156 8.57042C153.735 10.9558 150.164 13.0627 146.641 15.251C143.553 17.1689 141.03 20.0239 138.159 22.3094C132.474 26.8351 128.927 21.1099 125.028 16.9523ZM156.467 13.5126C156.438 13.2611 156.41 13.0093 156.396 12.7557C156.378 12.4339 156.384 12.1074 156.388 11.782C157.417 11.1578 158.431 10.5207 159.392 9.83715C159.549 9.72565 159.729 9.60299 159.919 9.4749C159.264 10.2554 158.6 11.0302 157.921 11.8032C157.428 12.3654 156.952 12.9429 156.467 13.5126ZM155.525 14.6188C155.287 14.902 155.043 15.1784 154.807 15.4631C154.682 14.6424 154.49 13.8266 154.334 13.0059C154.67 12.8101 154.998 12.6084 155.332 12.4113C155.287 13.1833 155.329 13.9529 155.525 14.6188ZM151.49 19.5506C151.086 20.0612 150.669 20.5599 150.271 21.0751C150.165 20.8363 149.834 20.7385 149.646 20.9382C149.333 19.3919 149.099 17.8493 148.985 16.2392C149.475 15.9117 149.986 15.6073 150.49 15.2951C150.426 16.8219 150.478 19.4518 151.49 19.5506ZM151.401 17.0509C151.315 16.3074 151.307 15.558 151.26 14.8123C152 14.3663 152.748 13.9301 153.495 13.4957C153.52 14.5262 153.666 15.5741 154.01 16.442C153.369 17.2241 152.726 18.0044 152.094 18.7953C152.036 18.7343 151.963 18.69 151.875 18.6845C151.552 18.6638 151.429 17.2949 151.401 17.0509ZM148.982 22.7541C148.206 23.7857 147.434 24.8226 146.681 25.8767C146.676 25.8762 146.672 25.8747 146.667 25.8741C146.619 25.5861 146.555 25.3073 146.522 25.0145C146.433 24.2353 146.411 23.446 146.386 22.6618C146.345 21.3432 146.356 20.0228 146.315 18.7042C146.309 18.5225 146.207 18.4325 146.09 18.3894C146.78 17.8057 147.511 17.2669 148.256 16.7444C148.259 18.7667 148.503 20.8065 148.982 22.7541ZM145.471 25.0145C145.484 25.4388 145.683 26.3559 146.005 26.8354C145.548 27.4876 145.076 28.1257 144.628 28.7875C144.632 27.5996 144.462 26.3671 144.374 25.2523C144.248 23.6773 144.121 22.0574 143.778 20.5093C144.392 19.9155 144.983 19.3455 145.532 18.8513C145.569 18.8176 145.611 18.7883 145.648 18.7548C145.564 20.8415 145.405 22.9242 145.471 25.0145ZM142.366 33.1838C142.444 33.2479 142.523 33.3168 142.601 33.3817C142.356 33.6293 142.137 33.9024 141.929 34.1858C141.463 30.467 141.682 26.7905 141.4 23.0705C141.392 22.9696 141.35 22.9004 141.302 22.8428C141.928 22.284 142.529 21.7109 143.114 21.1485C143.337 22.6901 143.399 24.2706 143.43 25.8176C143.46 27.3071 143.237 28.9293 143.556 30.3892C143.265 30.8355 142.953 31.2618 142.668 31.7135C142.655 31.7335 142.655 31.7542 142.645 31.7742C142.101 31.8305 141.804 32.7259 142.366 33.1838ZM136.665 42.756C136.585 37.1629 137.15 31.5079 136.955 25.9377C138.254 25.3166 139.518 24.3792 140.723 23.3477C140.71 23.5046 140.697 23.663 140.684 23.8209C140.662 23.9996 140.651 24.0087 140.642 24.3222C140.375 27.6846 140.232 31.2429 140.872 34.5104C140.943 34.8711 141.194 34.9832 141.434 34.9339C140.968 35.6903 140.556 36.4988 140.117 37.2819C139.936 37.6045 139.741 37.9173 139.557 38.2383C139.722 36.4112 139.508 34.3873 139.526 32.6846C139.553 30.2018 139.285 27.6875 139.269 25.2534C139.268 25.0228 138.961 25.0265 138.95 25.2534C138.821 27.6916 138.438 30.1955 138.352 32.6846C138.275 34.9152 137.732 37.7736 138.312 39.9502C138.335 40.0384 138.388 40.0884 138.436 40.1465C137.877 41.0437 137.293 41.9202 136.665 42.756ZM145.437 37.8109C144.146 38.9498 142.827 40.0503 141.492 41.1234C140.606 41.8354 139.691 42.4961 138.762 43.1325C139.386 42.2226 139.981 41.2849 140.559 40.3223C141.651 38.5051 143.106 36.5001 143.835 34.4163C144.739 35.1883 145.652 35.9745 146.584 36.7309C146.183 37.0846 145.806 37.4847 145.437 37.8109ZM160.306 28.2728C158.778 32.6509 158.334 39.692 153.257 38.4711C150.005 37.6891 146.946 34.7135 144.083 32.6022C151.039 23.1968 158.671 14.4728 165.651 5.15221C166.701 12.6823 162.654 21.545 160.306 28.2728Z" fill="white" stroke="white"/>
<path d="M127.787 38.7392C127.468 37.7925 127.261 36.8079 127.159 35.8036C127.09 35.119 126.22 35.0928 126.184 35.8036C126.133 36.8022 126.278 37.7435 126.496 38.7115C126.711 39.6632 126.952 40.7914 127.478 41.588C127.775 42.0379 128.646 41.9747 128.563 41.261C128.46 40.3646 128.071 39.5841 127.787 38.7392Z" fill="white" stroke="white"/>
<path d="M126.565 41.9964C126.073 41.0344 125.452 40.2676 125.097 39.2083C124.668 37.9268 124.663 36.5525 124.855 35.2212C124.954 34.532 124.118 34.2545 123.906 34.9305C123.11 37.4645 123.525 41.3692 125.697 42.9611C126.245 43.363 126.867 42.5877 126.565 41.9964Z" fill="white" stroke="white"/>
<path d="M146.876 43.9981C146.776 43.5845 146.342 43.4042 146.014 43.6081C145.629 43.8471 145.546 44.1861 145.347 44.6004C145.157 44.9964 144.906 45.3402 144.629 45.6644C144.018 46.3801 143.216 46.8473 142.424 47.2674C141.846 47.5737 142.257 48.6498 142.86 48.4162C143.799 48.0521 144.643 47.5431 145.412 46.8414C146.071 46.2403 147.121 45.0133 146.876 43.9981Z" fill="white" stroke="white"/>
<path d="M148.644 44.4474C148.043 45.0374 147.552 45.8218 146.959 46.4439C146.306 47.13 145.535 47.7236 144.928 48.4569C144.485 48.9929 145.039 49.7648 145.613 49.4438C146.451 48.9755 147.216 48.1903 147.937 47.5311C148.556 46.9661 149.455 46.2683 149.815 45.452C150.19 44.6007 149.29 43.8121 148.644 44.4474Z" fill="white" stroke="white"/>
<path d="M132.448 52.6937C131.383 52.8649 128.835 56.8045 127.956 58.0093C126.935 59.4079 125.606 60.9139 124.28 61.553" stroke="white" stroke-width="2" stroke-linecap="round"/>
<path d="M109.576 69.8218C112.364 69.8218 114.764 67.5179 117.336 66.278" stroke="white" stroke-width="2" stroke-linecap="round"/>
<path d="M91.1964 72.7749C92.9902 72.7749 96.2318 73.63 97.7314 72.1843" stroke="white" stroke-width="2" stroke-linecap="round"/>
<path d="M72 68.6406C73.5882 68.6406 77.3613 67.6085 78.1265 69.8218" stroke="white" stroke-width="2" stroke-linecap="round"/>
<path d="M9.60858 118.622C9.24458 119.938 8.32058 120.82 6.83658 121.268C5.49258 121.66 4.28858 121.52 3.22458 120.848C2.07658 120.148 1.71258 119.112 2.13258 117.74C2.49658 116.172 3.19658 113.666 4.23258 110.222C5.26858 106.778 5.99658 104.356 6.41658 102.956C7.39658 99.484 8.01258 97.188 8.26458 96.068C9.13258 93.268 9.74858 91.532 10.1126 90.86C10.5046 90.188 10.8406 89.726 11.1206 89.474C11.4006 89.194 11.8486 88.872 12.4646 88.508C13.1086 88.144 13.7946 87.864 14.5226 87.668C15.2506 87.472 15.9786 87.346 16.7066 87.29C17.4346 87.206 18.1766 87.15 18.9326 87.122C19.6886 87.066 20.5286 86.926 21.4526 86.702C21.8166 86.702 22.1386 86.674 22.4186 86.618C22.7266 86.562 23.0206 86.52 23.3006 86.492C23.9446 86.436 24.5746 86.506 25.1906 86.702C25.8346 86.898 26.3106 87.248 26.6186 87.752C26.9546 88.256 27.1226 88.83 27.1226 89.474C27.1226 90.118 26.9826 90.804 26.7026 91.532C26.4506 92.26 26.0866 92.96 25.6106 93.632C24.5746 95.088 23.2726 96.124 21.7046 96.74C20.6126 97.076 19.8286 97.244 19.3526 97.244C18.8766 97.244 18.5406 97.188 18.3446 97.076C18.1766 96.964 18.0786 96.88 18.0506 96.824C18.0226 96.768 17.9246 96.866 17.7566 97.118C17.5046 97.482 17.3226 97.888 17.2106 98.336C17.0986 98.784 16.9726 99.12 16.8326 99.344C16.6926 99.54 16.4966 99.946 16.2446 100.562C16.0206 101.178 15.7266 101.696 15.3626 102.116C14.9986 102.508 14.7886 102.746 14.7326 102.83L18.4286 102.452C19.0166 102.396 19.5206 102.522 19.9406 102.83C20.3886 103.11 20.6966 103.46 20.8646 103.88C21.0606 104.3 21.1166 104.72 21.0326 105.14C20.9486 105.532 20.6966 105.84 20.2766 106.064C19.8566 106.26 19.5766 106.47 19.4366 106.694C19.3246 106.89 19.2266 107.086 19.1426 107.282C19.0586 107.478 18.9466 107.674 18.8066 107.87C18.6946 108.066 18.4286 108.248 18.0086 108.416C17.1126 108.836 15.3906 109.172 12.8426 109.424C12.7026 109.844 12.5066 110.348 12.2546 110.936C12.0306 111.496 11.7926 112.084 11.5406 112.7C10.8126 114.576 10.3926 115.71 10.2806 116.102C10.1966 116.494 10.1266 116.816 10.0706 117.068C9.90258 117.824 9.74858 118.342 9.60858 118.622ZM28.5434 119.126C28.2914 120.246 27.4234 120.932 25.9394 121.184C24.5674 121.436 23.2654 121.282 22.0334 120.722C20.6614 120.134 20.0594 119.308 20.2274 118.244C20.0594 116.62 20.9134 113.092 22.7894 107.66C25.5894 99.512 28.3894 93.688 31.1894 90.188C31.9174 89.292 32.5334 88.718 33.0374 88.466C33.5694 88.186 34.1714 87.934 34.8434 87.71C35.5154 87.486 36.2154 87.276 36.9434 87.08C38.3994 86.688 39.7714 86.422 41.0594 86.282C42.3754 86.114 43.5514 86.268 44.5874 86.744C45.6234 87.192 46.4214 87.864 46.9814 88.76C47.5694 89.656 47.9334 90.72 48.0734 91.952C48.2134 93.156 48.1714 94.43 47.9474 95.774C47.7234 97.09 47.3174 98.434 46.7294 99.806C46.1414 101.15 45.3994 102.41 44.5034 103.586C42.5434 106.162 40.2474 107.828 37.6154 108.584L38.0354 109.298C38.3994 109.858 38.8334 110.474 39.3374 111.146C39.8694 111.818 40.3874 112.504 40.8914 113.204C41.4234 113.904 41.8994 114.604 42.3194 115.304C42.7394 116.004 43.0474 116.662 43.2434 117.278C43.6914 118.65 43.3414 119.644 42.1934 120.26C41.2694 120.82 40.5414 120.96 40.0094 120.68C39.7854 120.54 39.5614 120.358 39.3374 120.134C39.1134 119.938 38.8054 119.77 38.4134 119.63C36.7614 120.106 35.5014 119.686 34.6334 118.37C34.1014 117.53 33.6954 116.76 33.4154 116.06C33.1354 115.36 32.8974 114.772 32.7014 114.296C32.1974 113.26 31.6234 112.364 30.9794 111.608C30.6714 112.364 30.3214 113.33 29.9294 114.506C29.4534 115.99 28.9214 117.53 28.3334 119.126H28.5434ZM37.0274 94.682C36.4954 95.886 36.1314 96.726 35.9354 97.202C35.5434 98.154 35.1094 99.204 34.6334 100.352C34.5494 100.968 34.4794 101.402 34.4234 101.654L35.0114 101.066L35.7254 100.73C36.2294 100.45 36.6914 100.198 37.1114 99.974C37.5314 99.75 37.9094 99.47 38.2454 99.134C38.8894 98.49 39.4494 97.44 39.9254 95.984C39.9254 95.704 39.9674 95.424 40.0514 95.144C40.1634 94.864 40.2334 94.584 40.2614 94.304C40.3734 93.688 40.1214 93.254 39.5054 93.002C38.9454 92.946 38.2454 93.408 37.4054 94.388C37.2374 94.584 37.1114 94.682 37.0274 94.682ZM55.1307 113.708C56.7547 113.876 57.9587 113.96 58.7427 113.96C59.5547 113.96 60.7727 113.848 62.3967 113.624C62.9007 113.792 63.1947 114.002 63.2787 114.254C63.3627 114.506 63.3907 114.772 63.3627 115.052C63.3347 115.304 63.3487 115.556 63.4047 115.808C63.4607 116.06 63.7267 116.27 64.2027 116.438C64.4547 116.522 64.5247 116.774 64.4127 117.194C64.3287 117.586 64.1047 118.02 63.7407 118.496C62.8167 119.7 61.7247 120.54 60.4647 121.016C58.4487 121.52 56.8667 121.814 55.7187 121.898C53.8147 122.038 51.7427 121.968 49.5027 121.688C47.0387 121.24 45.8487 120.218 45.9327 118.622C45.9327 112.742 47.2207 106.834 49.7967 100.898C50.6367 98.966 51.5887 96.936 52.6527 94.808C52.8767 94.36 53.0027 93.856 53.0307 93.296C53.0867 92.736 53.1287 92.19 53.1567 91.658C53.1847 91.126 53.2687 90.65 53.4087 90.23C53.5487 89.81 53.8427 89.516 54.2907 89.348C60.1147 87.024 64.7207 86.128 68.1087 86.66C69.2847 86.688 70.0547 87.094 70.4187 87.878C70.8107 88.634 70.8527 89.488 70.5447 90.44C70.2647 91.392 69.6907 92.288 68.8227 93.128C67.9827 93.968 66.9187 94.486 65.6307 94.682C63.9787 95.158 62.9707 95.48 62.6067 95.648C61.9067 95.984 61.4027 96.432 61.0947 96.992C60.7027 97.608 60.3387 98.196 60.0027 98.756C59.6667 99.316 59.4287 99.918 59.2887 100.562L59.1207 101.486C59.6527 101.738 60.2967 101.822 61.0527 101.738C61.8367 101.626 62.5507 101.528 63.1947 101.444C63.8667 101.332 64.3987 101.318 64.7907 101.402C65.2107 101.486 65.2947 101.906 65.0427 102.662C64.8187 103.39 64.3847 104.216 63.7407 105.14C63.1247 106.064 62.2427 106.736 61.0947 107.156C60.3667 107.296 59.8627 107.408 59.5827 107.492C59.3307 107.548 59.1347 107.59 58.9947 107.618C58.7987 107.646 58.2387 107.688 57.3147 107.744C55.9987 109.984 55.2007 111.72 54.9207 112.952C54.8087 113.456 54.8787 113.708 55.1307 113.708ZM91.3941 115.64C91.6461 116.592 91.5901 117.39 91.2261 118.034C90.8621 118.65 90.3441 119.126 89.6721 119.462C89.6721 119.602 89.7561 119.938 89.9241 120.47C90.1201 121.03 90.2741 121.492 90.3861 121.856C90.6381 122.612 90.7081 123.298 90.5961 123.914C90.2881 124.978 89.5041 125.552 88.2441 125.636C87.7121 125.692 87.1801 125.622 86.6481 125.426C86.1161 125.23 85.6961 124.922 85.3881 124.502C85.3321 124.614 85.1781 124.376 84.9261 123.788C84.6741 123.228 84.3941 122.584 84.0861 121.856L83.1621 120.008C81.6501 120.484 80.4181 120.68 79.4661 120.596C77.9821 120.428 76.4141 120.022 74.7621 119.378C72.4661 118.482 70.8841 116.886 70.0161 114.59C69.1481 112.294 69.0361 109.48 69.6801 106.148C69.9881 102.228 70.9261 98.644 72.4941 95.396C74.3421 91.56 76.6521 89.082 79.4241 87.962C82.2521 86.534 84.6041 85.932 86.4801 86.156L87.2361 85.904C87.6561 85.176 88.3001 84.658 89.1681 84.35C90.0641 84.042 91.0161 83.916 92.0241 83.972C93.0321 84.028 94.0121 84.238 94.9641 84.602C95.9441 84.966 96.7281 85.456 97.3161 86.072C99.4161 88.116 100.27 91.434 99.8781 96.026C99.4301 101.654 97.3861 106.918 93.7461 111.818C92.8781 112.994 91.9401 114.086 90.9321 115.094L91.3941 115.64ZM79.3401 114.758C79.0601 113.722 78.9201 112.896 78.9201 112.28C78.8641 112.224 78.8361 112.154 78.8361 112.07V112.028C78.8081 112 78.7941 111.958 78.7941 111.902H78.8361C78.8921 110.502 79.6061 109.578 80.9781 109.13C81.8181 108.682 82.7421 108.5 83.7501 108.584C84.7581 108.64 85.6681 108.948 86.4801 109.508C86.7601 109.032 86.9981 108.598 87.1941 108.206L87.6981 107.198C90.1341 102.046 90.7501 97.664 89.5461 94.052C88.7061 94.612 87.7821 94.99 86.7741 95.186C85.7941 95.354 84.8841 95.368 84.0441 95.228C83.4281 95.76 82.8401 96.404 82.2801 97.16C81.7481 97.888 81.3701 98.392 81.1461 98.672C80.9501 98.952 80.5861 99.554 80.0541 100.478C79.5501 101.374 79.0601 102.368 78.5841 103.46C78.1081 104.552 77.7021 105.686 77.3661 106.862C77.0301 108.01 76.8481 109.102 76.8201 110.138C76.7641 112.49 77.6041 114.03 79.3401 114.758ZM112.463 88.592V88.676C112.463 88.704 112.463 88.718 112.463 88.718C112.491 88.718 112.505 88.732 112.505 88.76V88.844H112.547L112.799 89.516C113.079 90.328 112.351 92.848 110.615 97.076C108.767 101.584 107.913 105.098 108.053 107.618C108.361 109.41 109.859 107.968 112.547 103.292C114.675 99.652 116.733 95.662 118.721 91.322C118.973 90.734 119.239 90.132 119.519 89.516C119.799 88.872 120.149 88.34 120.569 87.92C121.493 86.912 122.613 86.646 123.929 87.122C124.377 86.59 124.895 86.226 125.483 86.03C126.099 85.834 126.673 85.792 127.205 85.904C127.765 86.016 128.241 86.282 128.633 86.702C129.025 87.094 129.235 87.626 129.263 88.298C129.347 88.858 129.053 90.188 128.381 92.288C127.737 94.388 127.135 96.306 126.575 98.042C126.015 99.778 125.441 101.668 124.853 103.712C123.425 108.556 122.291 113.12 121.451 117.404C121.423 118.3 121.031 119.042 120.275 119.63C119.547 120.218 118.721 120.596 117.797 120.764C116.901 120.96 116.047 120.932 115.235 120.68C114.255 120.4 113.737 119.7 113.681 118.58C113.681 118.272 113.667 117.964 113.639 117.656C113.695 118.608 113.009 119.42 111.581 120.092C111.189 120.288 110.825 120.47 110.489 120.638C108.529 121.226 106.471 121.1 104.315 120.26C103.307 119.84 102.397 119.28 101.585 118.58C100.801 117.852 100.255 116.998 99.9466 116.018C98.9666 112.882 99.1486 108.766 100.493 103.67C101.053 101.486 101.739 99.358 102.551 97.286C103.363 95.214 103.951 93.716 104.315 92.792C104.707 91.868 104.987 91.238 105.155 90.902C105.323 90.538 105.505 90.188 105.701 89.852C106.177 88.9 106.583 88.256 106.919 87.92L107.423 87.458C107.479 87.402 107.535 87.374 107.591 87.374C107.647 87.346 107.717 87.304 107.801 87.248C108.025 87.108 108.263 87.01 108.515 86.954L109.103 86.828H109.355C110.167 86.716 110.867 86.884 111.455 87.332C111.455 87.36 111.483 87.374 111.539 87.374L111.875 87.668L112.001 87.794L112.127 87.962C112.127 87.99 112.127 88.004 112.127 88.004C112.155 88.004 112.169 88.018 112.169 88.046L112.211 88.088V88.172C112.239 88.172 112.253 88.186 112.253 88.214V88.256C112.281 88.284 112.309 88.298 112.337 88.298V88.34C112.337 88.368 112.337 88.382 112.337 88.382C112.365 88.382 112.379 88.396 112.379 88.424C112.379 88.424 112.393 88.438 112.421 88.466V88.508C112.421 88.536 112.435 88.564 112.463 88.592ZM113.597 116.564V116.438C113.569 116.466 113.555 116.578 113.555 116.774C113.555 116.69 113.569 116.634 113.597 116.606V116.564ZM136.301 113.708C137.925 113.876 139.129 113.96 139.913 113.96C140.725 113.96 141.943 113.848 143.567 113.624C144.071 113.792 144.365 114.002 144.449 114.254C144.533 114.506 144.561 114.772 144.533 115.052C144.505 115.304 144.519 115.556 144.575 115.808C144.631 116.06 144.897 116.27 145.373 116.438C145.625 116.522 145.695 116.774 145.583 117.194C145.499 117.586 145.275 118.02 144.911 118.496C143.987 119.7 142.895 120.54 141.635 121.016C139.619 121.52 138.037 121.814 136.889 121.898C134.985 122.038 132.913 121.968 130.673 121.688C128.209 121.24 127.019 120.218 127.103 118.622C127.103 112.742 128.391 106.834 130.967 100.898C131.807 98.966 132.759 96.936 133.823 94.808C134.047 94.36 134.173 93.856 134.201 93.296C134.257 92.736 134.299 92.19 134.327 91.658C134.355 91.126 134.439 90.65 134.579 90.23C134.719 89.81 135.013 89.516 135.461 89.348C141.285 87.024 145.891 86.128 149.279 86.66C150.455 86.688 151.225 87.094 151.589 87.878C151.981 88.634 152.023 89.488 151.715 90.44C151.435 91.392 150.861 92.288 149.993 93.128C149.153 93.968 148.089 94.486 146.801 94.682C145.149 95.158 144.141 95.48 143.777 95.648C143.077 95.984 142.573 96.432 142.265 96.992C141.873 97.608 141.509 98.196 141.173 98.756C140.837 99.316 140.599 99.918 140.459 100.562L140.291 101.486C140.823 101.738 141.467 101.822 142.223 101.738C143.007 101.626 143.721 101.528 144.365 101.444C145.037 101.332 145.569 101.318 145.961 101.402C146.381 101.486 146.465 101.906 146.213 102.662C145.989 103.39 145.555 104.216 144.911 105.14C144.295 106.064 143.413 106.736 142.265 107.156C141.537 107.296 141.033 107.408 140.753 107.492C140.501 107.548 140.305 107.59 140.165 107.618C139.969 107.646 139.409 107.688 138.485 107.744C137.169 109.984 136.371 111.72 136.091 112.952C135.979 113.456 136.049 113.708 136.301 113.708ZM151.69 102.704C152.25 100.828 152.698 99.386 153.034 98.378C153.398 97.342 153.748 96.418 154.084 95.606C154.42 94.794 154.798 94.01 155.218 93.254C155.666 92.498 156.142 91.812 156.646 91.196C157.178 90.552 157.738 90.048 158.326 89.684C158.914 89.32 159.53 89.138 160.174 89.138C160.818 89.138 161.49 89.39 162.19 89.894C163.31 92.694 163.996 94.57 164.248 95.522C164.584 96.922 164.892 98.896 165.172 101.444C165.424 100.8 165.704 100.128 166.012 99.428C166.348 98.7 166.67 97.972 166.978 97.244C167.846 95.396 168.392 93.996 168.616 93.044C169.232 91.084 170.506 89.614 172.438 88.634C174.118 87.794 175.686 87.528 177.142 87.836C177.73 87.948 178.136 88.186 178.36 88.55C178.612 88.914 178.612 89.292 178.36 89.684C178.136 90.076 178.052 90.454 178.108 90.818C178.192 91.154 178.262 91.56 178.318 92.036C178.402 93.324 178.178 94.472 177.646 95.48C177.114 96.46 176.568 97.692 176.008 99.176C175.448 100.632 174.874 102.186 174.286 103.838C173.726 105.49 173.152 107.17 172.564 108.878C171.976 110.586 171.402 112.14 170.842 113.54C169.61 116.76 168.602 118.538 167.818 118.874C166.754 119.518 165.97 119.896 165.466 120.008C164.822 120.12 163.912 120.12 162.736 120.008C162.008 119.952 161.378 119.014 160.846 117.194C160.538 116.214 160.258 114.856 160.006 113.12C159.558 110.096 159.25 108.43 159.082 108.122C157.962 111.762 157.164 114.058 156.688 115.01C156.24 115.962 155.89 116.592 155.638 116.9C155.414 117.208 155.134 117.614 154.798 118.118C154.434 119.126 153.566 119.868 152.194 120.344C151.018 120.792 149.954 120.862 149.002 120.554C147.966 120.218 147.658 119.574 148.078 118.622C148.386 115.262 149.59 109.956 151.69 102.704ZM189.905 108.248C189.149 110.432 188.379 112.532 187.595 114.548C186.811 116.564 186.153 118.09 185.621 119.126C185.117 120.19 184.669 120.918 184.277 121.31C183.885 121.702 183.479 121.968 183.059 122.108C182.667 122.248 182.261 122.304 181.841 122.276C181.449 122.248 181.043 122.22 180.623 122.192C178.271 121.828 177.543 120.134 178.439 117.11C179.027 114.702 179.503 112.742 179.867 111.23C180.231 109.69 180.525 108.43 180.749 107.45C181.001 106.442 181.211 105.616 181.379 104.972C181.547 104.3 181.729 103.642 181.925 102.998C182.121 102.354 182.359 101.626 182.639 100.814C182.947 100.002 183.339 98.924 183.815 97.58C182.751 97.72 181.799 97.608 180.959 97.244C179.727 96.712 179.223 95.564 179.447 93.8C179.559 92.988 179.993 92.232 180.749 91.532C181.141 91.168 181.603 90.776 182.135 90.356C183.227 89.488 185.397 88.564 188.645 87.584C192.005 86.576 194.889 86.1 197.297 86.156C197.941 86.044 198.599 86.128 199.271 86.408C199.971 86.66 200.531 87.01 200.951 87.458C201.371 87.906 201.581 88.396 201.581 88.928C201.609 89.46 201.273 89.936 200.573 90.356C200.237 90.58 199.999 90.958 199.859 91.49C199.719 91.994 199.565 92.54 199.397 93.128C199.229 93.688 198.977 94.206 198.641 94.682C198.333 95.158 197.829 95.438 197.129 95.522C196.765 95.718 196.247 95.858 195.575 95.942C194.931 96.026 194.497 96.096 194.273 96.152C194.077 96.18 193.965 96.25 193.937 96.362C193.433 97.846 192.831 99.652 192.131 101.78C191.431 103.88 190.689 106.036 189.905 108.248ZM184.235 97.118C184.179 97.118 184.151 97.132 184.151 97.16C184.151 97.16 184.179 97.16 184.235 97.16V97.118ZM210.945 121.016C210.357 121.184 209.797 121.268 209.265 121.268C208.733 121.296 208.187 121.324 207.627 121.352C207.095 121.38 206.353 121.394 205.401 121.394C204.449 121.394 203.021 121.366 201.117 121.31C200.669 121.338 200.221 121.352 199.773 121.352C199.325 121.352 198.905 121.268 198.513 121.1C197.645 120.736 197.057 119.896 196.749 118.58C196.609 117.964 196.455 117.53 196.287 117.278C196.091 117.026 195.937 116.788 195.825 116.564C195.545 116.116 195.573 115.374 195.909 114.338C196.217 113.302 196.623 112.028 197.127 110.516C197.631 108.976 198.205 107.352 198.849 105.644C200.361 101.584 201.719 98.364 202.923 95.984C203.399 94.92 203.805 93.996 204.141 93.212C204.505 92.428 204.827 91.756 205.107 91.196C205.387 90.608 205.527 90.3 205.527 90.272C205.807 89.208 206.885 88.312 208.761 87.584C210.581 86.828 212.233 86.632 213.717 86.996C215.369 87.416 216.097 88.508 215.901 90.272C215.509 92.008 214.921 93.744 214.137 95.48C213.381 97.216 212.513 99.036 211.533 100.94C210.553 102.844 209.489 104.86 208.341 106.988C207.193 109.116 206.059 111.426 204.939 113.918C204.911 114.03 204.967 114.128 205.107 114.212C205.471 114.184 205.975 114.072 206.619 113.876C207.291 113.68 207.977 113.512 208.677 113.372C209.405 113.204 210.119 113.12 210.819 113.12C211.519 113.12 212.107 113.302 212.583 113.666C212.555 114.17 212.681 114.576 212.961 114.884C213.241 115.164 213.521 115.444 213.801 115.724C214.501 116.452 214.557 117.418 213.969 118.622C213.409 119.798 212.401 120.596 210.945 121.016ZM221.017 103.082C220.541 99.022 220.345 95.718 220.429 93.17C220.373 91.966 220.863 90.818 221.899 89.726C222.879 88.69 223.901 88.116 224.965 88.004C226.141 87.92 226.897 88.578 227.233 89.978C227.457 90.762 227.737 91.672 228.073 92.708C228.409 93.744 228.731 94.836 229.039 95.984C229.347 95.564 229.837 94.822 230.509 93.758C231.181 92.694 231.811 91.742 232.399 90.902C233.827 88.858 235.087 87.43 236.179 86.618C237.243 86.198 238.153 86.086 238.909 86.282C239.693 86.45 240.253 86.73 240.589 87.122C240.953 87.514 241.093 88.088 241.009 88.844C240.953 90.608 239.609 93.38 236.977 97.16C236.361 98.028 235.731 99.036 235.087 100.184C234.471 101.332 233.743 102.62 232.903 104.048C232.091 105.448 231.307 106.848 230.551 108.248C228.815 111.412 227.457 114.422 226.477 117.278C226.505 117.222 226.617 117.292 226.813 117.488C227.009 117.656 227.191 117.908 227.359 118.244C227.807 119.084 227.765 119.784 227.233 120.344C225.889 121.744 224.223 122.528 222.235 122.696C220.415 122.836 218.847 122.5 217.531 121.688C216.215 120.932 215.781 119.994 216.229 118.874H216.103C216.719 117.278 217.419 115.78 218.203 114.38C218.987 112.952 219.799 111.482 220.639 109.97L222.529 106.61C222.053 106.722 221.661 106.386 221.353 105.602C221.129 104.958 221.017 104.118 221.017 103.082Z" fill="white"/>
<path d="M8.55251 146.578C8.75651 146.578 8.93051 146.65 9.07451 146.794C9.21851 146.926 9.29051 147.094 9.29051 147.298C9.29051 147.502 9.21851 147.67 9.07451 147.802C8.93051 147.934 8.75651 148 8.55251 148H2.32451C2.12051 148 1.94651 147.928 1.80251 147.784C1.67051 147.64 1.60451 147.466 1.60451 147.262V136.12C1.60451 135.916 1.67651 135.748 1.82051 135.616C1.96451 135.472 2.14451 135.4 2.36051 135.4C2.56451 135.4 2.73851 135.472 2.88251 135.616C3.02651 135.748 3.09851 135.916 3.09851 136.12V146.902L2.73851 146.578H8.55251ZM15.4104 148.18C14.4504 148.18 13.6104 147.976 12.8904 147.568C12.1704 147.16 11.6064 146.602 11.1984 145.894C10.8024 145.174 10.6044 144.346 10.6044 143.41C10.6044 142.366 10.8084 141.478 11.2164 140.746C11.6364 140.002 12.1764 139.438 12.8364 139.054C13.5084 138.658 14.2164 138.46 14.9604 138.46C15.5124 138.46 16.0464 138.562 16.5624 138.766C17.0784 138.97 17.5344 139.27 17.9304 139.666C18.3264 140.05 18.6444 140.518 18.8844 141.07C19.1244 141.61 19.2504 142.216 19.2624 142.888C19.2624 143.08 19.1904 143.242 19.0464 143.374C18.9024 143.506 18.7344 143.572 18.5424 143.572H11.4324L11.1084 142.33H18.0384L17.7504 142.582V142.186C17.7024 141.694 17.5344 141.274 17.2464 140.926C16.9704 140.566 16.6284 140.29 16.2204 140.098C15.8244 139.906 15.4044 139.81 14.9604 139.81C14.6004 139.81 14.2404 139.876 13.8804 140.008C13.5324 140.128 13.2144 140.332 12.9264 140.62C12.6504 140.896 12.4224 141.256 12.2424 141.7C12.0744 142.144 11.9904 142.678 11.9904 143.302C11.9904 143.998 12.1284 144.61 12.4044 145.138C12.6924 145.666 13.0884 146.086 13.5924 146.398C14.0964 146.698 14.6844 146.848 15.3564 146.848C15.7764 146.848 16.1424 146.794 16.4544 146.686C16.7664 146.578 17.0364 146.446 17.2644 146.29C17.4924 146.122 17.6844 145.954 17.8404 145.786C17.9964 145.678 18.1464 145.624 18.2904 145.624C18.4704 145.624 18.6144 145.684 18.7224 145.804C18.8424 145.924 18.9024 146.068 18.9024 146.236C18.9024 146.44 18.8064 146.62 18.6144 146.776C18.2784 147.148 17.8224 147.478 17.2464 147.766C16.6704 148.042 16.0584 148.18 15.4104 148.18ZM22.1467 148C21.9427 148 21.7687 147.928 21.6247 147.784C21.4927 147.64 21.4267 147.466 21.4267 147.262V139.414C21.4267 139.21 21.4927 139.042 21.6247 138.91C21.7687 138.766 21.9427 138.694 22.1467 138.694C22.3627 138.694 22.5367 138.766 22.6687 138.91C22.8007 139.042 22.8667 139.21 22.8667 139.414V141.79L22.6507 141.412C22.7227 141.04 22.8487 140.68 23.0287 140.332C23.2207 139.972 23.4607 139.654 23.7487 139.378C24.0367 139.09 24.3667 138.868 24.7387 138.712C25.1107 138.544 25.5187 138.46 25.9627 138.46C26.2267 138.46 26.4667 138.526 26.6827 138.658C26.9107 138.778 27.0247 138.952 27.0247 139.18C27.0247 139.432 26.9587 139.618 26.8267 139.738C26.6947 139.858 26.5447 139.918 26.3767 139.918C26.2207 139.918 26.0707 139.888 25.9267 139.828C25.7827 139.756 25.6027 139.72 25.3867 139.72C25.0867 139.72 24.7867 139.804 24.4867 139.972C24.1987 140.128 23.9287 140.356 23.6767 140.656C23.4367 140.956 23.2387 141.298 23.0827 141.682C22.9387 142.054 22.8667 142.456 22.8667 142.888V147.262C22.8667 147.466 22.7947 147.64 22.6507 147.784C22.5187 147.928 22.3507 148 22.1467 148ZM32.549 148.18C31.589 148.18 30.749 147.976 30.029 147.568C29.309 147.16 28.745 146.602 28.337 145.894C27.941 145.174 27.743 144.346 27.743 143.41C27.743 142.366 27.947 141.478 28.355 140.746C28.775 140.002 29.315 139.438 29.975 139.054C30.647 138.658 31.355 138.46 32.099 138.46C32.651 138.46 33.185 138.562 33.701 138.766C34.217 138.97 34.673 139.27 35.069 139.666C35.465 140.05 35.783 140.518 36.023 141.07C36.263 141.61 36.389 142.216 36.401 142.888C36.401 143.08 36.329 143.242 36.185 143.374C36.041 143.506 35.873 143.572 35.681 143.572H28.571L28.247 142.33H35.177L34.889 142.582V142.186C34.841 141.694 34.673 141.274 34.385 140.926C34.109 140.566 33.767 140.29 33.359 140.098C32.963 139.906 32.543 139.81 32.099 139.81C31.739 139.81 31.379 139.876 31.019 140.008C30.671 140.128 30.353 140.332 30.065 140.62C29.789 140.896 29.561 141.256 29.381 141.7C29.213 142.144 29.129 142.678 29.129 143.302C29.129 143.998 29.267 144.61 29.543 145.138C29.831 145.666 30.227 146.086 30.731 146.398C31.235 146.698 31.823 146.848 32.495 146.848C32.915 146.848 33.281 146.794 33.593 146.686C33.905 146.578 34.175 146.446 34.403 146.29C34.631 146.122 34.823 145.954 34.979 145.786C35.135 145.678 35.285 145.624 35.429 145.624C35.609 145.624 35.753 145.684 35.861 145.804C35.981 145.924 36.041 146.068 36.041 146.236C36.041 146.44 35.945 146.62 35.753 146.776C35.417 147.148 34.961 147.478 34.385 147.766C33.809 148.042 33.197 148.18 32.549 148.18ZM43.1914 138.46C44.0074 138.46 44.6494 138.628 45.1174 138.964C45.5854 139.3 45.9154 139.75 46.1074 140.314C46.3114 140.878 46.4134 141.508 46.4134 142.204V147.262C46.4134 147.466 46.3414 147.64 46.1974 147.784C46.0654 147.928 45.8974 148 45.6934 148C45.4894 148 45.3154 147.928 45.1714 147.784C45.0394 147.64 44.9734 147.466 44.9734 147.262V142.24C44.9734 141.784 44.9014 141.376 44.7574 141.016C44.6254 140.644 44.3974 140.35 44.0734 140.134C43.7614 139.906 43.3294 139.792 42.7774 139.792C42.2734 139.792 41.8114 139.906 41.3914 140.134C40.9714 140.35 40.6354 140.644 40.3834 141.016C40.1314 141.376 40.0054 141.784 40.0054 142.24V147.262C40.0054 147.466 39.9334 147.64 39.7894 147.784C39.6574 147.928 39.4894 148 39.2854 148C39.0814 148 38.9074 147.928 38.7634 147.784C38.6314 147.64 38.5654 147.466 38.5654 147.262V139.414C38.5654 139.21 38.6314 139.042 38.7634 138.91C38.9074 138.766 39.0814 138.694 39.2854 138.694C39.5014 138.694 39.6754 138.766 39.8074 138.91C39.9394 139.042 40.0054 139.21 40.0054 139.414V140.692L39.6454 141.088C39.7054 140.776 39.8434 140.464 40.0594 140.152C40.2754 139.828 40.5454 139.54 40.8694 139.288C41.1934 139.036 41.5534 138.838 41.9494 138.694C42.3454 138.538 42.7594 138.46 43.1914 138.46ZM49.5091 147.982C49.2571 147.982 49.0591 147.91 48.9151 147.766C48.7831 147.622 48.7171 147.424 48.7171 147.172V146.812C48.7171 146.548 48.7831 146.344 48.9151 146.2C49.0591 146.056 49.2571 145.984 49.5091 145.984H49.6531C49.9171 145.984 50.1151 146.056 50.2471 146.2C50.3791 146.344 50.4451 146.548 50.4451 146.812V147.172C50.4451 147.424 50.3791 147.622 50.2471 147.766C50.1151 147.91 49.9171 147.982 49.6531 147.982H49.5091ZM58.716 135.4C58.92 135.4 59.094 135.472 59.238 135.616C59.382 135.748 59.454 135.922 59.454 136.138V147.262C59.454 147.466 59.376 147.64 59.22 147.784C59.076 147.928 58.902 148 58.698 148C58.47 148 58.29 147.928 58.158 147.784C58.026 147.64 57.96 147.466 57.96 147.262V136.138C57.96 135.922 58.032 135.748 58.176 135.616C58.32 135.472 58.5 135.4 58.716 135.4ZM67.014 135.4C67.23 135.4 67.404 135.472 67.536 135.616C67.68 135.748 67.752 135.922 67.752 136.138V147.262C67.752 147.466 67.68 147.64 67.536 147.784C67.392 147.928 67.212 148 66.996 148C66.792 148 66.618 147.928 66.474 147.784C66.33 147.64 66.258 147.466 66.258 147.262V136.138C66.258 135.922 66.33 135.748 66.474 135.616C66.63 135.472 66.81 135.4 67.014 135.4ZM58.644 140.89H67.032L67.014 142.294H58.59L58.644 140.89ZM74.9651 148.18C74.0051 148.18 73.1651 147.976 72.4451 147.568C71.7251 147.16 71.1611 146.602 70.7531 145.894C70.3571 145.174 70.1591 144.346 70.1591 143.41C70.1591 142.366 70.3631 141.478 70.7711 140.746C71.1911 140.002 71.7311 139.438 72.3911 139.054C73.0631 138.658 73.7711 138.46 74.5151 138.46C75.0671 138.46 75.6011 138.562 76.1171 138.766C76.6331 138.97 77.0891 139.27 77.4851 139.666C77.8811 140.05 78.1991 140.518 78.4391 141.07C78.6791 141.61 78.8051 142.216 78.8171 142.888C78.8171 143.08 78.7451 143.242 78.6011 143.374C78.4571 143.506 78.2891 143.572 78.0971 143.572H70.9871L70.6631 142.33H77.5931L77.3051 142.582V142.186C77.2571 141.694 77.0891 141.274 76.8011 140.926C76.5251 140.566 76.1831 140.29 75.7751 140.098C75.3791 139.906 74.9591 139.81 74.5151 139.81C74.1551 139.81 73.7951 139.876 73.4351 140.008C73.0871 140.128 72.7691 140.332 72.4811 140.62C72.2051 140.896 71.9771 141.256 71.7971 141.7C71.6291 142.144 71.5451 142.678 71.5451 143.302C71.5451 143.998 71.6831 144.61 71.9591 145.138C72.2471 145.666 72.6431 146.086 73.1471 146.398C73.6511 146.698 74.2391 146.848 74.9111 146.848C75.3311 146.848 75.6971 146.794 76.0091 146.686C76.3211 146.578 76.5911 146.446 76.8191 146.29C77.0471 146.122 77.2391 145.954 77.3951 145.786C77.5511 145.678 77.7011 145.624 77.8451 145.624C78.0251 145.624 78.1691 145.684 78.2771 145.804C78.3971 145.924 78.4571 146.068 78.4571 146.236C78.4571 146.44 78.3611 146.62 78.1691 146.776C77.8331 147.148 77.3771 147.478 76.8011 147.766C76.2251 148.042 75.6131 148.18 74.9651 148.18ZM81.7014 148C81.4974 148 81.3234 147.928 81.1794 147.784C81.0474 147.64 80.9814 147.466 80.9814 147.262V139.414C80.9814 139.21 81.0474 139.042 81.1794 138.91C81.3234 138.766 81.4974 138.694 81.7014 138.694C81.9174 138.694 82.0914 138.766 82.2234 138.91C82.3554 139.042 82.4214 139.21 82.4214 139.414V141.79L82.2054 141.412C82.2774 141.04 82.4034 140.68 82.5834 140.332C82.7754 139.972 83.0154 139.654 83.3034 139.378C83.5914 139.09 83.9214 138.868 84.2934 138.712C84.6654 138.544 85.0734 138.46 85.5174 138.46C85.7814 138.46 86.0214 138.526 86.2374 138.658C86.4654 138.778 86.5794 138.952 86.5794 139.18C86.5794 139.432 86.5134 139.618 86.3814 139.738C86.2494 139.858 86.0994 139.918 85.9314 139.918C85.7754 139.918 85.6254 139.888 85.4814 139.828C85.3374 139.756 85.1574 139.72 84.9414 139.72C84.6414 139.72 84.3414 139.804 84.0414 139.972C83.7534 140.128 83.4834 140.356 83.2314 140.656C82.9914 140.956 82.7934 141.298 82.6374 141.682C82.4934 142.054 82.4214 142.456 82.4214 142.888V147.262C82.4214 147.466 82.3494 147.64 82.2054 147.784C82.0734 147.928 81.9054 148 81.7014 148ZM92.706 138.55C93.498 138.55 94.122 138.724 94.578 139.072C95.046 139.408 95.376 139.864 95.568 140.44C95.772 141.004 95.874 141.634 95.874 142.33V147.262C95.874 147.466 95.802 147.64 95.658 147.784C95.526 147.928 95.358 148 95.154 148C94.95 148 94.776 147.928 94.632 147.784C94.5 147.64 94.434 147.466 94.434 147.262V142.33C94.434 141.874 94.368 141.466 94.236 141.106C94.104 140.734 93.882 140.44 93.57 140.224C93.27 139.996 92.856 139.882 92.328 139.882C91.836 139.882 91.386 139.996 90.978 140.224C90.57 140.44 90.246 140.734 90.006 141.106C89.766 141.466 89.646 141.874 89.646 142.33V147.262C89.646 147.466 89.574 147.64 89.43 147.784C89.298 147.928 89.13 148 88.926 148C88.722 148 88.548 147.928 88.404 147.784C88.272 147.64 88.206 147.466 88.206 147.262V135.4C88.206 135.196 88.272 135.028 88.404 134.896C88.548 134.752 88.722 134.68 88.926 134.68C89.142 134.68 89.316 134.752 89.448 134.896C89.58 135.028 89.646 135.196 89.646 135.4V140.782L89.286 141.178C89.346 140.866 89.478 140.554 89.682 140.242C89.886 139.918 90.144 139.63 90.456 139.378C90.768 139.126 91.116 138.928 91.5 138.784C91.884 138.628 92.286 138.55 92.706 138.55ZM106.21 138.604C106.414 138.604 106.582 138.676 106.714 138.82C106.858 138.952 106.93 139.12 106.93 139.324V147.262C106.93 147.466 106.858 147.64 106.714 147.784C106.582 147.928 106.414 148 106.21 148C105.994 148 105.82 147.928 105.688 147.784C105.556 147.64 105.49 147.466 105.49 147.262V145.552L105.832 145.516C105.832 145.78 105.742 146.068 105.562 146.38C105.382 146.692 105.136 146.986 104.824 147.262C104.512 147.526 104.14 147.748 103.708 147.928C103.288 148.096 102.832 148.18 102.34 148.18C101.524 148.18 100.792 147.97 100.144 147.55C99.496 147.118 98.98 146.536 98.596 145.804C98.224 145.072 98.038 144.238 98.038 143.302C98.038 142.354 98.224 141.52 98.596 140.8C98.98 140.068 99.496 139.498 100.144 139.09C100.792 138.67 101.512 138.46 102.304 138.46C102.82 138.46 103.3 138.544 103.744 138.712C104.188 138.88 104.572 139.108 104.896 139.396C105.232 139.684 105.49 140.002 105.67 140.35C105.862 140.698 105.958 141.046 105.958 141.394L105.49 141.286V139.324C105.49 139.12 105.556 138.952 105.688 138.82C105.82 138.676 105.994 138.604 106.21 138.604ZM102.502 146.848C103.102 146.848 103.63 146.692 104.086 146.38C104.554 146.068 104.914 145.648 105.166 145.12C105.43 144.58 105.562 143.974 105.562 143.302C105.562 142.642 105.43 142.048 105.166 141.52C104.914 140.98 104.554 140.56 104.086 140.26C103.63 139.948 103.102 139.792 102.502 139.792C101.914 139.792 101.386 139.942 100.918 140.242C100.462 140.542 100.102 140.956 99.838 141.484C99.574 142.012 99.442 142.618 99.442 143.302C99.442 143.974 99.568 144.58 99.82 145.12C100.084 145.648 100.444 146.068 100.9 146.38C101.368 146.692 101.902 146.848 102.502 146.848ZM111.183 147.262C111.183 147.466 111.111 147.64 110.967 147.784C110.823 147.928 110.649 148 110.445 148C110.241 148 110.073 147.928 109.941 147.784C109.809 147.64 109.743 147.466 109.743 147.262V135.4C109.743 135.196 109.809 135.028 109.941 134.896C110.085 134.752 110.259 134.68 110.463 134.68C110.679 134.68 110.853 134.752 110.985 134.896C111.117 135.028 111.183 135.196 111.183 135.4V147.262ZM118.102 148.18C117.142 148.18 116.302 147.976 115.582 147.568C114.862 147.16 114.298 146.602 113.89 145.894C113.494 145.174 113.296 144.346 113.296 143.41C113.296 142.366 113.5 141.478 113.908 140.746C114.328 140.002 114.868 139.438 115.528 139.054C116.2 138.658 116.908 138.46 117.652 138.46C118.204 138.46 118.738 138.562 119.254 138.766C119.77 138.97 120.226 139.27 120.622 139.666C121.018 140.05 121.336 140.518 121.576 141.07C121.816 141.61 121.942 142.216 121.954 142.888C121.954 143.08 121.882 143.242 121.738 143.374C121.594 143.506 121.426 143.572 121.234 143.572H114.124L113.8 142.33H120.73L120.442 142.582V142.186C120.394 141.694 120.226 141.274 119.938 140.926C119.662 140.566 119.32 140.29 118.912 140.098C118.516 139.906 118.096 139.81 117.652 139.81C117.292 139.81 116.932 139.876 116.572 140.008C116.224 140.128 115.906 140.332 115.618 140.62C115.342 140.896 115.114 141.256 114.934 141.7C114.766 142.144 114.682 142.678 114.682 143.302C114.682 143.998 114.82 144.61 115.096 145.138C115.384 145.666 115.78 146.086 116.284 146.398C116.788 146.698 117.376 146.848 118.048 146.848C118.468 146.848 118.834 146.794 119.146 146.686C119.458 146.578 119.728 146.446 119.956 146.29C120.184 146.122 120.376 145.954 120.532 145.786C120.688 145.678 120.838 145.624 120.982 145.624C121.162 145.624 121.306 145.684 121.414 145.804C121.534 145.924 121.594 146.068 121.594 146.236C121.594 146.44 121.498 146.62 121.306 146.776C120.97 147.148 120.514 147.478 119.938 147.766C119.362 148.042 118.75 148.18 118.102 148.18ZM128.744 138.46C129.56 138.46 130.202 138.628 130.67 138.964C131.138 139.3 131.468 139.75 131.66 140.314C131.864 140.878 131.966 141.508 131.966 142.204V147.262C131.966 147.466 131.894 147.64 131.75 147.784C131.618 147.928 131.45 148 131.246 148C131.042 148 130.868 147.928 130.724 147.784C130.592 147.64 130.526 147.466 130.526 147.262V142.24C130.526 141.784 130.454 141.376 130.31 141.016C130.178 140.644 129.95 140.35 129.626 140.134C129.314 139.906 128.882 139.792 128.33 139.792C127.826 139.792 127.364 139.906 126.944 140.134C126.524 140.35 126.188 140.644 125.936 141.016C125.684 141.376 125.558 141.784 125.558 142.24V147.262C125.558 147.466 125.486 147.64 125.342 147.784C125.21 147.928 125.042 148 124.838 148C124.634 148 124.46 147.928 124.316 147.784C124.184 147.64 124.118 147.466 124.118 147.262V139.414C124.118 139.21 124.184 139.042 124.316 138.91C124.46 138.766 124.634 138.694 124.838 138.694C125.054 138.694 125.228 138.766 125.36 138.91C125.492 139.042 125.558 139.21 125.558 139.414V140.692L125.198 141.088C125.258 140.776 125.396 140.464 125.612 140.152C125.828 139.828 126.098 139.54 126.422 139.288C126.746 139.036 127.106 138.838 127.502 138.694C127.898 138.538 128.312 138.46 128.744 138.46ZM135.062 147.982C134.81 147.982 134.612 147.91 134.468 147.766C134.336 147.622 134.27 147.424 134.27 147.172V146.812C134.27 146.548 134.336 146.344 134.468 146.2C134.612 146.056 134.81 145.984 135.062 145.984H135.206C135.47 145.984 135.668 146.056 135.8 146.2C135.932 146.344 135.998 146.548 135.998 146.812V147.172C135.998 147.424 135.932 147.622 135.8 147.766C135.668 147.91 135.47 147.982 135.206 147.982H135.062ZM154.871 141.7C154.871 142.624 154.721 143.482 154.421 144.274C154.121 145.054 153.701 145.738 153.161 146.326C152.621 146.914 151.979 147.37 151.235 147.694C150.491 148.018 149.681 148.18 148.805 148.18C147.917 148.18 147.101 148.018 146.357 147.694C145.625 147.37 144.989 146.914 144.449 146.326C143.909 145.738 143.489 145.054 143.189 144.274C142.889 143.482 142.739 142.624 142.739 141.7C142.739 140.764 142.889 139.906 143.189 139.126C143.489 138.334 143.909 137.65 144.449 137.074C144.989 136.486 145.625 136.03 146.357 135.706C147.101 135.382 147.917 135.22 148.805 135.22C149.681 135.22 150.491 135.382 151.235 135.706C151.979 136.03 152.621 136.486 153.161 137.074C153.701 137.65 154.121 138.334 154.421 139.126C154.721 139.906 154.871 140.764 154.871 141.7ZM153.323 141.7C153.323 140.716 153.125 139.846 152.729 139.09C152.345 138.334 151.817 137.74 151.145 137.308C150.473 136.876 149.693 136.66 148.805 136.66C147.917 136.66 147.131 136.876 146.447 137.308C145.775 137.74 145.247 138.334 144.863 139.09C144.479 139.846 144.287 140.716 144.287 141.7C144.287 142.672 144.479 143.542 144.863 144.31C145.247 145.066 145.775 145.66 146.447 146.092C147.131 146.524 147.917 146.74 148.805 146.74C149.693 146.74 150.473 146.524 151.145 146.092C151.817 145.66 152.345 145.066 152.729 144.31C153.125 143.542 153.323 142.672 153.323 141.7ZM161.633 138.46C162.449 138.46 163.091 138.628 163.559 138.964C164.027 139.3 164.357 139.75 164.549 140.314C164.753 140.878 164.855 141.508 164.855 142.204V147.262C164.855 147.466 164.783 147.64 164.639 147.784C164.507 147.928 164.339 148 164.135 148C163.931 148 163.757 147.928 163.613 147.784C163.481 147.64 163.415 147.466 163.415 147.262V142.24C163.415 141.784 163.343 141.376 163.199 141.016C163.067 140.644 162.839 140.35 162.515 140.134C162.203 139.906 161.771 139.792 161.219 139.792C160.715 139.792 160.253 139.906 159.833 140.134C159.413 140.35 159.077 140.644 158.825 141.016C158.573 141.376 158.447 141.784 158.447 142.24V147.262C158.447 147.466 158.375 147.64 158.231 147.784C158.099 147.928 157.931 148 157.727 148C157.523 148 157.349 147.928 157.205 147.784C157.073 147.64 157.007 147.466 157.007 147.262V139.414C157.007 139.21 157.073 139.042 157.205 138.91C157.349 138.766 157.523 138.694 157.727 138.694C157.943 138.694 158.117 138.766 158.249 138.91C158.381 139.042 158.447 139.21 158.447 139.414V140.692L158.087 141.088C158.147 140.776 158.285 140.464 158.501 140.152C158.717 139.828 158.987 139.54 159.311 139.288C159.635 139.036 159.995 138.838 160.391 138.694C160.787 138.538 161.201 138.46 161.633 138.46ZM167.159 138.748H171.389C171.581 138.748 171.737 138.814 171.857 138.946C171.989 139.078 172.055 139.234 172.055 139.414C172.055 139.606 171.989 139.768 171.857 139.9C171.737 140.02 171.581 140.08 171.389 140.08H167.159C166.979 140.08 166.823 140.014 166.691 139.882C166.559 139.75 166.493 139.588 166.493 139.396C166.493 139.216 166.559 139.066 166.691 138.946C166.823 138.814 166.979 138.748 167.159 138.748ZM169.049 136.3C169.253 136.3 169.421 136.372 169.553 136.516C169.685 136.648 169.751 136.816 169.751 137.02V145.714C169.751 146.002 169.793 146.218 169.877 146.362C169.961 146.506 170.069 146.608 170.201 146.668C170.345 146.716 170.483 146.74 170.615 146.74C170.735 146.74 170.837 146.722 170.921 146.686C171.017 146.638 171.125 146.614 171.245 146.614C171.365 146.614 171.473 146.674 171.569 146.794C171.677 146.902 171.731 147.046 171.731 147.226C171.731 147.442 171.605 147.628 171.353 147.784C171.101 147.928 170.819 148 170.507 148C170.339 148 170.129 147.988 169.877 147.964C169.637 147.94 169.397 147.862 169.157 147.73C168.917 147.598 168.713 147.382 168.545 147.082C168.389 146.77 168.311 146.338 168.311 145.786V137.02C168.311 136.816 168.383 136.648 168.527 136.516C168.671 136.372 168.845 136.3 169.049 136.3ZM178.558 138.55C179.35 138.55 179.974 138.724 180.43 139.072C180.898 139.408 181.228 139.864 181.42 140.44C181.624 141.004 181.726 141.634 181.726 142.33V147.262C181.726 147.466 181.654 147.64 181.51 147.784C181.378 147.928 181.21 148 181.006 148C180.802 148 180.628 147.928 180.484 147.784C180.352 147.64 180.286 147.466 180.286 147.262V142.33C180.286 141.874 180.22 141.466 180.088 141.106C179.956 140.734 179.734 140.44 179.422 140.224C179.122 139.996 178.708 139.882 178.18 139.882C177.688 139.882 177.238 139.996 176.83 140.224C176.422 140.44 176.098 140.734 175.858 141.106C175.618 141.466 175.498 141.874 175.498 142.33V147.262C175.498 147.466 175.426 147.64 175.282 147.784C175.15 147.928 174.982 148 174.778 148C174.574 148 174.4 147.928 174.256 147.784C174.124 147.64 174.058 147.466 174.058 147.262V135.4C174.058 135.196 174.124 135.028 174.256 134.896C174.4 134.752 174.574 134.68 174.778 134.68C174.994 134.68 175.168 134.752 175.3 134.896C175.432 135.028 175.498 135.196 175.498 135.4V140.782L175.138 141.178C175.198 140.866 175.33 140.554 175.534 140.242C175.738 139.918 175.996 139.63 176.308 139.378C176.62 139.126 176.968 138.928 177.352 138.784C177.736 138.628 178.138 138.55 178.558 138.55ZM193.232 143.32C193.232 144.256 193.022 145.09 192.602 145.822C192.194 146.554 191.636 147.13 190.928 147.55C190.232 147.97 189.446 148.18 188.57 148.18C187.694 148.18 186.902 147.97 186.194 147.55C185.486 147.13 184.922 146.554 184.502 145.822C184.094 145.09 183.89 144.256 183.89 143.32C183.89 142.384 184.094 141.55 184.502 140.818C184.922 140.086 185.486 139.51 186.194 139.09C186.902 138.67 187.694 138.46 188.57 138.46C189.446 138.46 190.232 138.67 190.928 139.09C191.636 139.51 192.194 140.086 192.602 140.818C193.022 141.55 193.232 142.384 193.232 143.32ZM191.792 143.32C191.792 142.624 191.648 142.012 191.36 141.484C191.084 140.956 190.7 140.542 190.208 140.242C189.728 139.942 189.182 139.792 188.57 139.792C187.958 139.792 187.406 139.942 186.914 140.242C186.434 140.542 186.05 140.956 185.762 141.484C185.474 142.012 185.33 142.624 185.33 143.32C185.33 144.004 185.474 144.61 185.762 145.138C186.05 145.666 186.434 146.086 186.914 146.398C187.406 146.698 187.958 146.848 188.57 146.848C189.182 146.848 189.728 146.698 190.208 146.398C190.7 146.086 191.084 145.666 191.36 145.138C191.648 144.61 191.792 144.004 191.792 143.32ZM202.363 138.694C202.579 138.694 202.753 138.766 202.885 138.91C203.017 139.042 203.083 139.21 203.083 139.414V144.328C203.083 145.54 202.741 146.482 202.057 147.154C201.385 147.814 200.443 148.144 199.231 148.144C198.031 148.144 197.089 147.814 196.405 147.154C195.733 146.482 195.397 145.54 195.397 144.328V139.414C195.397 139.21 195.463 139.042 195.595 138.91C195.739 138.766 195.913 138.694 196.117 138.694C196.333 138.694 196.507 138.766 196.639 138.91C196.771 139.042 196.837 139.21 196.837 139.414V144.328C196.837 145.144 197.047 145.762 197.467 146.182C197.887 146.602 198.475 146.812 199.231 146.812C200.011 146.812 200.605 146.602 201.013 146.182C201.433 145.762 201.643 145.144 201.643 144.328V139.414C201.643 139.21 201.709 139.042 201.841 138.91C201.985 138.766 202.159 138.694 202.363 138.694ZM213.419 134.68C213.623 134.68 213.791 134.752 213.923 134.896C214.067 135.028 214.139 135.196 214.139 135.4V147.262C214.139 147.466 214.067 147.64 213.923 147.784C213.791 147.928 213.623 148 213.419 148C213.203 148 213.029 147.928 212.897 147.784C212.765 147.64 212.699 147.466 212.699 147.262V145.552L213.041 145.426C213.041 145.714 212.951 146.02 212.771 146.344C212.591 146.656 212.345 146.95 212.033 147.226C211.721 147.502 211.349 147.73 210.917 147.91C210.497 148.09 210.041 148.18 209.549 148.18C208.745 148.18 208.013 147.97 207.353 147.55C206.705 147.13 206.189 146.554 205.805 145.822C205.433 145.09 205.247 144.256 205.247 143.32C205.247 142.372 205.433 141.532 205.805 140.8C206.189 140.068 206.705 139.498 207.353 139.09C208.001 138.67 208.721 138.46 209.513 138.46C210.017 138.46 210.491 138.544 210.935 138.712C211.379 138.88 211.763 139.108 212.087 139.396C212.423 139.684 212.687 140.002 212.879 140.35C213.071 140.698 213.167 141.046 213.167 141.394L212.699 141.286V135.4C212.699 135.196 212.765 135.028 212.897 134.896C213.029 134.752 213.203 134.68 213.419 134.68ZM209.711 146.848C210.311 146.848 210.839 146.698 211.295 146.398C211.763 146.086 212.123 145.666 212.375 145.138C212.639 144.598 212.771 143.992 212.771 143.32C212.771 142.636 212.639 142.03 212.375 141.502C212.123 140.974 211.763 140.56 211.295 140.26C210.839 139.948 210.311 139.792 209.711 139.792C209.123 139.792 208.595 139.948 208.127 140.26C207.671 140.56 207.311 140.974 207.047 141.502C206.783 142.03 206.651 142.636 206.651 143.32C206.651 143.98 206.783 144.58 207.047 145.12C207.311 145.648 207.671 146.068 208.127 146.38C208.595 146.692 209.123 146.848 209.711 146.848ZM221.11 148.18C220.15 148.18 219.31 147.976 218.59 147.568C217.87 147.16 217.306 146.602 216.898 145.894C216.502 145.174 216.304 144.346 216.304 143.41C216.304 142.366 216.508 141.478 216.916 140.746C217.336 140.002 217.876 139.438 218.536 139.054C219.208 138.658 219.916 138.46 220.66 138.46C221.212 138.46 221.746 138.562 222.262 138.766C222.778 138.97 223.234 139.27 223.63 139.666C224.026 140.05 224.344 140.518 224.584 141.07C224.824 141.61 224.95 142.216 224.962 142.888C224.962 143.08 224.89 143.242 224.746 143.374C224.602 143.506 224.434 143.572 224.242 143.572H217.132L216.808 142.33H223.738L223.45 142.582V142.186C223.402 141.694 223.234 141.274 222.946 140.926C222.67 140.566 222.328 140.29 221.92 140.098C221.524 139.906 221.104 139.81 220.66 139.81C220.3 139.81 219.94 139.876 219.58 140.008C219.232 140.128 218.914 140.332 218.626 140.62C218.35 140.896 218.122 141.256 217.942 141.7C217.774 142.144 217.69 142.678 217.69 143.302C217.69 143.998 217.828 144.61 218.104 145.138C218.392 145.666 218.788 146.086 219.292 146.398C219.796 146.698 220.384 146.848 221.056 146.848C221.476 146.848 221.842 146.794 222.154 146.686C222.466 146.578 222.736 146.446 222.964 146.29C223.192 146.122 223.384 145.954 223.54 145.786C223.696 145.678 223.846 145.624 223.99 145.624C224.17 145.624 224.314 145.684 224.422 145.804C224.542 145.924 224.602 146.068 224.602 146.236C224.602 146.44 224.506 146.62 224.314 146.776C223.978 147.148 223.522 147.478 222.946 147.766C222.37 148.042 221.758 148.18 221.11 148.18ZM231.752 138.46C232.568 138.46 233.21 138.628 233.678 138.964C234.146 139.3 234.476 139.75 234.668 140.314C234.872 140.878 234.974 141.508 234.974 142.204V147.262C234.974 147.466 234.902 147.64 234.758 147.784C234.626 147.928 234.458 148 234.254 148C234.05 148 233.876 147.928 233.732 147.784C233.6 147.64 233.534 147.466 233.534 147.262V142.24C233.534 141.784 233.462 141.376 233.318 141.016C233.186 140.644 232.958 140.35 232.634 140.134C232.322 139.906 231.89 139.792 231.338 139.792C230.834 139.792 230.372 139.906 229.952 140.134C229.532 140.35 229.196 140.644 228.944 141.016C228.692 141.376 228.566 141.784 228.566 142.24V147.262C228.566 147.466 228.494 147.64 228.35 147.784C228.218 147.928 228.05 148 227.846 148C227.642 148 227.468 147.928 227.324 147.784C227.192 147.64 227.126 147.466 227.126 147.262V139.414C227.126 139.21 227.192 139.042 227.324 138.91C227.468 138.766 227.642 138.694 227.846 138.694C228.062 138.694 228.236 138.766 228.368 138.91C228.5 139.042 228.566 139.21 228.566 139.414V140.692L228.206 141.088C228.266 140.776 228.404 140.464 228.62 140.152C228.836 139.828 229.106 139.54 229.43 139.288C229.754 139.036 230.114 138.838 230.51 138.694C230.906 138.538 231.32 138.46 231.752 138.46ZM238.07 147.982C237.818 147.982 237.62 147.91 237.476 147.766C237.344 147.622 237.278 147.424 237.278 147.172V146.812C237.278 146.548 237.344 146.344 237.476 146.2C237.62 146.056 237.818 145.984 238.07 145.984H238.214C238.478 145.984 238.676 146.056 238.808 146.2C238.94 146.344 239.006 146.548 239.006 146.812V147.172C239.006 147.424 238.94 147.622 238.808 147.766C238.676 147.91 238.478 147.982 238.214 147.982H238.07Z" fill="#F72585"/>
</svg>
